<svg xmlns="http://www.w3.org/2000/svg" xmlns:xlink="http://www.w3.org/1999/xlink" width="40" zoomAndPan="magnify" viewBox="0 0 30 30.000001" height="40" preserveAspectRatio="xMidYMid meet" version="1.0"><defs><g/></defs><g fill="#f9f9fb" fill-opacity="1"><g transform="translate(1.068886, 23.015664)"><g><path d="M 15.179688 -1.523438 C 15.417969 -6.171875 14.84375 -10.84375 13.988281 -15.394531 C 13.964844 -15.417969 13.917969 -15.417969 13.917969 -15.371094 C 14.035156 -13.988281 14.105469 -12.582031 14.15625 -11.175781 C 14.128906 -11.175781 14.082031 -11.152344 14.058594 -11.152344 L 13.703125 -14.558594 C 13.628906 -15.25 13.175781 -15.824219 12.4375 -15.824219 C 11.773438 -15.824219 11.105469 -15.25 11.152344 -14.558594 C 11.320312 -12.367188 11.582031 -10.175781 11.773438 -7.984375 L 11.914062 -6.671875 C 10.960938 -8.699219 9.816406 -10.628906 8.53125 -12.460938 C 8.03125 -13.390625 7.480469 -14.464844 6.554688 -14.988281 C 6.433594 -14.894531 6.339844 -14.773438 6.265625 -14.65625 C 6.050781 -14.773438 5.839844 -14.820312 5.625 -14.75 C 4.886719 -14.464844 4.980469 -13.84375 4.957031 -13.175781 C 4.957031 -12.488281 5.027344 -11.796875 5.097656 -11.105469 C 5.21875 -9.792969 5.21875 -8.507812 5.097656 -7.195312 C 5.027344 -6.648438 4.957031 -6.101562 4.835938 -5.550781 C 4.765625 -5.625 4.71875 -5.71875 4.695312 -5.8125 C 4.410156 -7.695312 4.242188 -9.578125 4.074219 -11.484375 C 3.957031 -12.011719 3.835938 -12.535156 3.695312 -13.058594 C 3.550781 -13.628906 3.40625 -14.273438 3.191406 -14.820312 C 2.882812 -15.585938 2 -15.632812 2 -15.082031 C 2 -15.058594 2.050781 -15.035156 2.050781 -15.082031 C 2.191406 -15.558594 2.691406 -15.132812 2.789062 -14.894531 C 2.859375 -14.703125 2.882812 -14.511719 2.90625 -14.320312 C 2.90625 -14.226562 2.929688 -14.15625 2.953125 -14.082031 C 2.644531 -14.511719 2.238281 -14.871094 1.761719 -15.109375 C 1.121094 -15.441406 0.570312 -14.917969 0.667969 -14.273438 C 0.953125 -12.082031 1.261719 -9.914062 1.550781 -7.746094 C 1.8125 -5.527344 2.050781 -3.289062 2.429688 -1.097656 C 2.453125 -0.929688 2.527344 -0.808594 2.644531 -0.714844 C 2.714844 -0.382812 2.980469 -0.144531 3.289062 -0.046875 C 3.8125 0.09375 4.242188 -0.214844 4.410156 -0.691406 C 4.457031 -0.835938 4.527344 -0.976562 4.574219 -1.121094 C 4.574219 -0.859375 4.695312 -0.667969 4.910156 -0.523438 C 4.957031 -0.5 5.003906 -0.523438 5.027344 -0.570312 C 5.625 -1.359375 6.003906 -2.335938 6.363281 -3.242188 C 6.71875 -4.265625 6.980469 -5.289062 7.195312 -6.339844 C 7.386719 -7.171875 7.53125 -8.03125 7.671875 -8.886719 C 7.886719 -8.625 8.078125 -8.363281 8.269531 -8.101562 C 8.792969 -7.363281 9.292969 -6.601562 9.746094 -5.839844 C 10.652344 -4.3125 11.4375 -2.742188 12.058594 -1.097656 C 12.320312 -0.453125 13.082031 -0.121094 13.652344 -0.570312 C 14.011719 -0.667969 14.320312 -0.90625 14.394531 -1.3125 C 14.417969 -1.40625 14.417969 -1.5 14.441406 -1.597656 L 14.441406 -1.523438 C 14.464844 -1.046875 15.15625 -1.046875 15.179688 -1.523438 Z M 4.597656 -1.167969 C 4.621094 -1.261719 4.648438 -1.359375 4.695312 -1.429688 C 5.097656 -2.097656 5.457031 -2.8125 5.71875 -3.527344 C 5.503906 -2.574219 5.195312 -1.644531 4.910156 -0.714844 C 4.71875 -0.785156 4.621094 -0.929688 4.648438 -1.144531 C 4.648438 -1.167969 4.621094 -1.191406 4.597656 -1.167969 Z M 4.597656 -1.167969 "/></g></g></g><g fill="#f9f9fb" fill-opacity="1"><g transform="translate(14.864887, 23.015664)"><g><path d="M 13.582031 -9.078125 C 13.652344 -9.601562 13.511719 -10.03125 13.128906 -10.316406 C 12.820312 -10.554688 12.488281 -10.820312 12.152344 -11.058594 C 12.105469 -11.246094 12.011719 -11.4375 11.820312 -11.582031 C 9.484375 -13.152344 7.125 -14.773438 4.503906 -15.609375 C 4.480469 -15.609375 4.457031 -15.632812 4.433594 -15.632812 C 4.265625 -15.703125 4.097656 -15.75 3.933594 -15.824219 C 3.882812 -15.871094 3.8125 -15.917969 3.71875 -15.917969 C 2.929688 -16.0625 1.5 -16.371094 1.046875 -15.488281 C 0.785156 -14.941406 1.046875 -14.273438 1.5 -13.890625 C 1.359375 -13.679688 1.191406 -13.511719 1 -13.367188 C 1.191406 -12.558594 1.359375 -11.722656 1.523438 -10.914062 C 1.382812 -10.914062 1.238281 -10.914062 1.097656 -10.890625 C 0.382812 -10.890625 0.09375 -9.699219 0.761719 -9.269531 C 0.976562 -9.125 1.238281 -8.984375 1.476562 -8.886719 L 0.929688 -8.816406 C 1.191406 -8.722656 1.453125 -8.625 1.714844 -8.554688 C 1.8125 -8.53125 1.859375 -8.460938 1.859375 -8.386719 C 1.90625 -8.386719 1.953125 -8.386719 2 -8.386719 L 2.144531 -7.554688 C 2.335938 -6.433594 2.527344 -5.3125 2.714844 -4.195312 L 2.929688 -2.621094 C 2.980469 -2.097656 2.929688 -1.523438 3.050781 -1.023438 C 3.050781 -0.761719 3.289062 -0.597656 3.480469 -0.644531 C 3.503906 -0.5 3.550781 -0.382812 3.621094 -0.261719 C 3.90625 0.0703125 4.382812 0.046875 4.695312 -0.214844 C 4.933594 -0.40625 5.097656 -0.644531 5.242188 -0.929688 C 5.242188 -1.046875 5.242188 -1.191406 5.21875 -1.335938 C 5.289062 -2.503906 5.171875 -3.71875 5.097656 -4.886719 C 5.050781 -5.980469 4.957031 -7.078125 4.835938 -8.148438 C 5.457031 -8.125 6.101562 -8.078125 6.71875 -8.054688 C 6.839844 -7.839844 6.980469 -7.601562 7.125 -7.386719 L 7.125 -7.363281 C 7.269531 -7.125 7.386719 -6.886719 7.507812 -6.625 C 7.957031 -5.742188 8.601562 -4.171875 8.863281 -3.550781 C 9.339844 -2.453125 9.816406 -1.335938 10.246094 -0.214844 C 10.339844 -0.167969 10.484375 -0.214844 10.554688 -0.285156 C 10.554688 -0.261719 10.582031 -0.261719 10.605469 -0.261719 C 10.820312 -0.167969 11.03125 -0.167969 11.246094 -0.191406 C 11.652344 -0.0234375 12.199219 -0.144531 12.273438 -0.667969 C 12.460938 -2.214844 11.628906 -3.71875 10.984375 -5.074219 C 10.484375 -6.101562 9.914062 -7.078125 9.269531 -8.03125 C 10.390625 -7.933594 11.507812 -7.839844 12.628906 -7.769531 C 13.011719 -7.71875 13.464844 -8.125 13.511719 -8.578125 Z M 3.90625 -12.726562 L 3.835938 -13.105469 C 5.886719 -12.628906 7.792969 -11.605469 9.625 -10.339844 L 7.316406 -10.628906 C 6.765625 -11.082031 5.980469 -11.722656 5.265625 -11.269531 C 5.148438 -11.175781 5.074219 -11.03125 5.050781 -10.914062 C 4.933594 -10.9375 4.789062 -10.9375 4.671875 -10.960938 C 4.574219 -11.460938 4.457031 -11.960938 4.335938 -12.460938 C 4.3125 -12.675781 4.074219 -12.675781 3.957031 -12.558594 C 3.933594 -12.605469 3.933594 -12.675781 3.90625 -12.726562 Z M 5.601562 -2 C 5.695312 -2.574219 5.886719 -2.8125 5.8125 -3.667969 C 5.695312 -5.097656 5.574219 -6.527344 5.335938 -7.910156 L 5.148438 -7.910156 C 5.433594 -5.957031 5.503906 -3.980469 5.601562 -2 Z M 5.601562 -2 "/></g></g></g></svg>