<svg xmlns="http://www.w3.org/2000/svg" xmlns:xlink="http://www.w3.org/1999/xlink" width="80" zoomAndPan="magnify" viewBox="0 0 60 30.000001" height="40" preserveAspectRatio="xMidYMid meet" version="1.0"><defs><g/></defs><g fill="#f9f9fb" fill-opacity="1"><g transform="translate(1.630086, 19.175707)"><g><path d="M 9.851562 -0.988281 C 10.003906 -4.003906 9.632812 -7.035156 9.078125 -9.992188 C 9.0625 -10.003906 9.03125 -10.003906 9.03125 -9.976562 C 9.109375 -9.078125 9.15625 -8.164062 9.1875 -7.253906 C 9.171875 -7.253906 9.140625 -7.238281 9.125 -7.238281 L 8.890625 -9.449219 C 8.847656 -9.898438 8.550781 -10.269531 8.074219 -10.269531 C 7.640625 -10.269531 7.207031 -9.898438 7.238281 -9.449219 C 7.347656 -8.027344 7.515625 -6.601562 7.640625 -5.179688 L 7.730469 -4.332031 C 7.113281 -5.644531 6.371094 -6.898438 5.535156 -8.089844 C 5.210938 -8.691406 4.855469 -9.386719 4.253906 -9.726562 C 4.175781 -9.664062 4.113281 -9.589844 4.066406 -9.511719 C 3.929688 -9.589844 3.789062 -9.617188 3.648438 -9.574219 C 3.171875 -9.386719 3.230469 -8.984375 3.214844 -8.550781 C 3.214844 -8.105469 3.261719 -7.65625 3.308594 -7.207031 C 3.386719 -6.355469 3.386719 -5.519531 3.308594 -4.671875 C 3.261719 -4.316406 3.214844 -3.960938 3.140625 -3.601562 C 3.09375 -3.648438 3.0625 -3.710938 3.046875 -3.773438 C 2.859375 -4.996094 2.753906 -6.21875 2.644531 -7.453125 C 2.566406 -7.792969 2.488281 -8.132812 2.398438 -8.476562 C 2.304688 -8.847656 2.210938 -9.261719 2.074219 -9.617188 C 1.871094 -10.113281 1.300781 -10.144531 1.300781 -9.789062 C 1.300781 -9.773438 1.328125 -9.757812 1.328125 -9.789062 C 1.421875 -10.097656 1.746094 -9.820312 1.808594 -9.664062 C 1.855469 -9.542969 1.871094 -9.417969 1.886719 -9.292969 C 1.886719 -9.234375 1.902344 -9.1875 1.917969 -9.140625 C 1.714844 -9.417969 1.453125 -9.648438 1.144531 -9.804688 C 0.726562 -10.019531 0.371094 -9.679688 0.433594 -9.261719 C 0.617188 -7.839844 0.820312 -6.433594 1.003906 -5.027344 C 1.175781 -3.585938 1.328125 -2.132812 1.578125 -0.710938 C 1.59375 -0.601562 1.640625 -0.527344 1.714844 -0.464844 C 1.761719 -0.246094 1.933594 -0.09375 2.132812 -0.03125 C 2.472656 0.0625 2.753906 -0.140625 2.859375 -0.449219 C 2.890625 -0.542969 2.9375 -0.632812 2.96875 -0.726562 C 2.96875 -0.558594 3.046875 -0.433594 3.1875 -0.339844 C 3.214844 -0.324219 3.246094 -0.339844 3.261719 -0.371094 C 3.648438 -0.882812 3.898438 -1.515625 4.128906 -2.101562 C 4.359375 -2.769531 4.53125 -3.433594 4.671875 -4.113281 C 4.792969 -4.65625 4.886719 -5.210938 4.980469 -5.769531 C 5.117188 -5.597656 5.242188 -5.429688 5.367188 -5.257812 C 5.707031 -4.777344 6.03125 -4.285156 6.324219 -3.789062 C 6.914062 -2.800781 7.421875 -1.777344 7.824219 -0.710938 C 7.996094 -0.292969 8.488281 -0.078125 8.863281 -0.371094 C 9.09375 -0.433594 9.292969 -0.585938 9.339844 -0.851562 C 9.355469 -0.914062 9.355469 -0.972656 9.371094 -1.035156 L 9.371094 -0.988281 C 9.386719 -0.679688 9.835938 -0.679688 9.851562 -0.988281 Z M 2.984375 -0.757812 C 3 -0.820312 3.015625 -0.882812 3.046875 -0.929688 C 3.308594 -1.359375 3.542969 -1.824219 3.710938 -2.289062 C 3.574219 -1.671875 3.371094 -1.066406 3.1875 -0.464844 C 3.0625 -0.511719 3 -0.601562 3.015625 -0.742188 C 3.015625 -0.757812 3 -0.773438 2.984375 -0.757812 Z M 2.984375 -0.757812 "/></g></g></g><g fill="#f9f9fb" fill-opacity="1"><g transform="translate(10.583572, 19.175707)"><g><path d="M 5.660156 -0.464844 C 6.015625 0.648438 7.160156 0.617188 6.988281 -0.773438 C 6.867188 -1.699219 6.601562 -2.953125 6.402344 -3.867188 C 7.253906 -4.40625 7.082031 -5.800781 5.90625 -5.9375 C 5.800781 -6.867188 5.707031 -9.203125 5.691406 -9.046875 C 5.628906 -8.535156 5.597656 -7.996094 5.582031 -7.46875 C 5.566406 -7.46875 5.566406 -7.46875 5.550781 -7.484375 C 5.488281 -8.089844 5.429688 -8.722656 5.382812 -9.339844 C 5.335938 -9.835938 5.011719 -10.144531 4.5625 -10.175781 C 4.4375 -10.421875 4.128906 -10.609375 3.867188 -10.59375 C 3.078125 -10.578125 2.769531 -9.617188 2.488281 -9.015625 C 2.085938 -8.058594 1.839844 -7.050781 1.625 -6.03125 C -0.214844 -5.753906 -0.214844 -4.066406 0.773438 -3.820312 C 0.789062 -3.773438 0.773438 -3.710938 0.757812 -3.679688 C 0.882812 -3.679688 1.035156 -3.695312 1.175781 -3.710938 C 0.941406 -2.816406 0.789062 -1.917969 0.664062 -1.003906 C 0.464844 0.449219 2.382812 0.664062 2.503906 -0.742188 L 2.597656 -1.4375 C 2.597656 -1.4375 2.859375 -3.015625 3.0625 -3.773438 L 3.203125 -3.773438 C 2.90625 -2.859375 2.769531 -1.917969 2.691406 -0.988281 C 2.675781 -0.804688 2.9375 -0.804688 2.9375 -0.988281 C 3.015625 -1.933594 3.1875 -2.84375 3.417969 -3.773438 L 4.625 -3.789062 C 4.746094 -3.230469 5.367188 -0.570312 5.660156 -0.464844 Z M 3.371094 -5.785156 C 3.511719 -6.511719 3.695312 -7.128906 3.945312 -7.996094 C 4.097656 -7.285156 4.175781 -6.230469 4.238281 -5.84375 C 4.019531 -5.832031 3.585938 -5.816406 3.371094 -5.785156 Z M 3.371094 -5.785156 "/></g></g></g><g fill="#f9f9fb" fill-opacity="1"><g transform="translate(16.444265, 19.175707)"><g><path d="M 8.816406 -5.890625 C 8.863281 -6.230469 8.769531 -6.511719 8.519531 -6.695312 C 8.320312 -6.851562 8.105469 -7.019531 7.886719 -7.175781 C 7.855469 -7.300781 7.792969 -7.421875 7.671875 -7.515625 C 6.15625 -8.535156 4.625 -9.589844 2.921875 -10.128906 C 2.90625 -10.128906 2.890625 -10.144531 2.875 -10.144531 C 2.769531 -10.191406 2.660156 -10.222656 2.550781 -10.269531 C 2.519531 -10.300781 2.472656 -10.332031 2.414062 -10.332031 C 1.902344 -10.421875 0.972656 -10.625 0.679688 -10.050781 C 0.511719 -9.695312 0.679688 -9.261719 0.972656 -9.015625 C 0.882812 -8.875 0.773438 -8.769531 0.648438 -8.675781 C 0.773438 -8.148438 0.882812 -7.609375 0.988281 -7.082031 C 0.898438 -7.082031 0.804688 -7.082031 0.710938 -7.066406 C 0.246094 -7.066406 0.0625 -6.292969 0.496094 -6.015625 C 0.632812 -5.921875 0.804688 -5.832031 0.957031 -5.769531 L 0.601562 -5.722656 C 0.773438 -5.660156 0.941406 -5.597656 1.113281 -5.550781 C 1.175781 -5.535156 1.207031 -5.488281 1.207031 -5.445312 C 1.238281 -5.445312 1.269531 -5.445312 1.300781 -5.445312 L 1.390625 -4.902344 C 1.515625 -4.175781 1.640625 -3.449219 1.761719 -2.722656 L 1.902344 -1.699219 C 1.933594 -1.359375 1.902344 -0.988281 1.980469 -0.664062 C 1.980469 -0.496094 2.132812 -0.386719 2.257812 -0.417969 C 2.273438 -0.324219 2.304688 -0.246094 2.351562 -0.171875 C 2.535156 0.046875 2.84375 0.03125 3.046875 -0.140625 C 3.203125 -0.261719 3.308594 -0.417969 3.402344 -0.601562 C 3.402344 -0.679688 3.402344 -0.773438 3.386719 -0.867188 C 3.433594 -1.625 3.355469 -2.414062 3.308594 -3.171875 C 3.277344 -3.882812 3.214844 -4.59375 3.140625 -5.289062 C 3.542969 -5.273438 3.960938 -5.242188 4.359375 -5.226562 C 4.4375 -5.089844 4.53125 -4.933594 4.625 -4.792969 L 4.625 -4.777344 C 4.714844 -4.625 4.792969 -4.46875 4.871094 -4.300781 C 5.164062 -3.726562 5.582031 -2.707031 5.753906 -2.304688 C 6.0625 -1.59375 6.371094 -0.867188 6.648438 -0.140625 C 6.710938 -0.109375 6.804688 -0.140625 6.851562 -0.1875 C 6.851562 -0.171875 6.867188 -0.171875 6.882812 -0.171875 C 7.019531 -0.109375 7.160156 -0.109375 7.300781 -0.125 C 7.5625 -0.015625 7.917969 -0.09375 7.964844 -0.433594 C 8.089844 -1.4375 7.546875 -2.414062 7.128906 -3.292969 C 6.804688 -3.960938 6.433594 -4.59375 6.015625 -5.210938 C 6.742188 -5.148438 7.46875 -5.089844 8.195312 -5.042969 C 8.445312 -5.011719 8.738281 -5.273438 8.769531 -5.566406 Z M 2.535156 -8.257812 L 2.488281 -8.503906 C 3.820312 -8.195312 5.058594 -7.53125 6.246094 -6.710938 L 4.746094 -6.898438 C 4.390625 -7.191406 3.882812 -7.609375 3.417969 -7.316406 C 3.339844 -7.253906 3.292969 -7.160156 3.277344 -7.082031 C 3.203125 -7.097656 3.109375 -7.097656 3.03125 -7.113281 C 2.96875 -7.4375 2.890625 -7.761719 2.816406 -8.089844 C 2.800781 -8.226562 2.644531 -8.226562 2.566406 -8.148438 C 2.550781 -8.179688 2.550781 -8.226562 2.535156 -8.257812 Z M 3.632812 -1.300781 C 3.695312 -1.671875 3.820312 -1.824219 3.773438 -2.382812 C 3.695312 -3.308594 3.617188 -4.238281 3.464844 -5.132812 L 3.339844 -5.132812 C 3.527344 -3.867188 3.574219 -2.582031 3.632812 -1.300781 Z M 3.632812 -1.300781 "/></g></g></g><g fill="#f9f9fb" fill-opacity="1"><g transform="translate(24.160634, 19.175707)"><g><path d="M 8.90625 -1.40625 C 9.246094 -2.210938 8.90625 -3.09375 8.535156 -3.820312 C 8.242188 -4.40625 7.871094 -4.949219 7.484375 -5.460938 C 7.253906 -5.769531 6.988281 -6.0625 6.726562 -6.339844 C 5.984375 -7.191406 5.179688 -7.980469 4.375 -8.753906 C 3.648438 -9.449219 2.90625 -10.128906 1.871094 -10.207031 C 1.515625 -10.238281 0.804688 -10.113281 0.664062 -9.710938 C 0.601562 -9.710938 0.527344 -9.695312 0.449219 -9.679688 C 0.171875 -9.632812 -0.0625 -9.371094 0.03125 -9.0625 C 0.046875 -9.015625 0.078125 -8.953125 0.09375 -8.890625 C 0.449219 -7.175781 0.804688 -5.460938 1.144531 -3.726562 C 1.191406 -3.542969 1.222656 -3.371094 1.253906 -3.1875 L 1.191406 -3.230469 C 0.757812 -3.480469 0.171875 -3.324219 -0.078125 -2.890625 C -0.339844 -2.457031 -0.199219 -1.855469 0.246094 -1.609375 C 0.726562 -1.359375 1.207031 -1.144531 1.699219 -0.941406 C 1.777344 -0.570312 1.886719 -0.324219 2.226562 -0.09375 C 2.382812 0.015625 2.597656 0.046875 2.800781 0.03125 C 2.90625 0.03125 2.984375 -0.015625 3.046875 -0.078125 C 3.109375 -0.046875 3.1875 -0.03125 3.261719 -0.046875 C 3.386719 -0.078125 3.496094 -0.1875 3.558594 -0.324219 C 3.929688 -0.230469 4.316406 -0.15625 4.703125 -0.09375 C 5.519531 0.03125 6.324219 0.0625 7.128906 -0.125 C 7.824219 -0.292969 8.613281 -0.726562 8.90625 -1.40625 Z M 0.570312 -7.761719 C 0.773438 -7.097656 1.4375 -4.34375 1.640625 -3.617188 C 1.699219 -3.355469 1.792969 -3.09375 1.886719 -2.828125 C 1.792969 -2.875 1.699219 -2.9375 1.609375 -2.984375 L 1.191406 -4.640625 C 0.914062 -5.707031 0.695312 -6.773438 0.433594 -7.839844 C 0.386719 -8.058594 0.558594 -7.824219 0.570312 -7.761719 Z M 7.128906 -3.046875 C 7.238281 -2.875 7.332031 -2.675781 7.421875 -2.488281 C 7.515625 -2.304688 7.609375 -2.132812 7.640625 -1.933594 C 7.46875 -1.777344 7.253906 -1.699219 6.988281 -1.640625 C 6.664062 -1.546875 6.433594 -1.546875 6.0625 -1.546875 C 5.660156 -1.5625 5.460938 -1.59375 5.058594 -1.6875 C 4.546875 -1.792969 4.050781 -1.949219 3.574219 -2.117188 C 3.496094 -2.582031 3.402344 -3.046875 3.324219 -3.511719 C 3.109375 -4.792969 2.875 -6.09375 2.613281 -7.375 L 2.90625 -7.222656 C 3.632812 -6.804688 4.253906 -6.355469 4.839844 -5.816406 C 5.429688 -5.304688 5.953125 -4.714844 6.417969 -4.097656 C 6.664062 -3.757812 6.898438 -3.402344 7.128906 -3.046875 Z M 7.128906 -3.046875 "/></g></g></g><g fill="#f9f9fb" fill-opacity="1"><g transform="translate(31.660506, 19.175707)"><g><path d="M 0.214844 -8.921875 C 0.246094 -8.769531 0.464844 -8.644531 0.601562 -8.597656 C 0.835938 -8.503906 1.066406 -8.476562 1.316406 -8.476562 C 1.609375 -8.476562 1.949219 -8.550781 2.132812 -8.769531 C 2.429688 -8.832031 2.722656 -8.96875 2.953125 -9.140625 C 3.078125 -9.234375 3.1875 -9.386719 3.125 -9.558594 C 2.96875 -9.960938 2.660156 -10.191406 2.242188 -10.300781 C 1.761719 -10.421875 1.285156 -10.238281 0.882812 -9.960938 C 0.851562 -9.945312 0.820312 -9.914062 0.789062 -9.882812 C 0.632812 -9.773438 0.511719 -9.648438 0.402344 -9.496094 C 0.292969 -9.339844 0.15625 -9.125 0.214844 -8.921875 Z M 1.253906 -8.550781 C 1.066406 -8.566406 0.898438 -8.597656 0.726562 -8.660156 C 0.617188 -8.691406 0.527344 -8.753906 0.433594 -8.832031 C 0.308594 -8.9375 0.324219 -9.046875 0.386719 -9.1875 C 0.449219 -9.292969 0.511719 -9.386719 0.585938 -9.480469 C 0.433594 -9.125 0.601562 -8.769531 1.050781 -8.675781 C 1.40625 -8.613281 1.609375 -8.644531 1.792969 -8.691406 C 1.808594 -8.691406 1.699219 -8.550781 1.253906 -8.550781 Z M 2.859375 -0.820312 C 2.890625 -0.664062 3.140625 -0.679688 3.125 -0.835938 C 2.828125 -3.03125 2.707031 -5.226562 2.769531 -7.4375 C 2.769531 -7.453125 2.660156 -7.4375 2.660156 -7.40625 C 2.597656 -6.308594 2.597656 -4.6875 2.644531 -3.585938 C 2.613281 -3.585938 2.566406 -4.128906 2.535156 -4.113281 C 2.519531 -4.253906 2.503906 -4.390625 2.503906 -4.5 C 2.488281 -5.074219 2.457031 -5.644531 2.457031 -6.203125 C 2.457031 -6.773438 2.488281 -7.332031 2.488281 -7.902344 C 2.472656 -8.042969 2.351562 -8.105469 2.242188 -8.089844 C 1.996094 -8.707031 1.207031 -8.132812 0.882812 -7.917969 C 0.835938 -7.871094 0.789062 -7.824219 0.757812 -7.761719 C 0.570312 -7.578125 0.480469 -7.285156 0.433594 -6.988281 C 0.371094 -6.433594 0.386719 -5.859375 0.386719 -5.304688 C 0.371094 -4.144531 0.449219 -3 0.585938 -1.855469 C 0.648438 -1.421875 0.664062 -0.957031 0.988281 -0.648438 C 1.066406 -0.585938 1.144531 -0.542969 1.222656 -0.511719 L 1.253906 -0.464844 C 1.546875 -0.171875 2.011719 -0.078125 2.382812 -0.261719 C 2.519531 -0.324219 2.550781 -0.449219 2.535156 -0.558594 C 2.660156 -0.601562 2.785156 -0.695312 2.859375 -0.820312 Z M 1.144531 -7.128906 C 1.144531 -7.160156 1.207031 -7.253906 1.253906 -7.285156 L 1.269531 -7.285156 C 1.097656 -6.789062 1.066406 -6.21875 1.066406 -5.691406 C 1.050781 -4.996094 1.066406 -4.300781 1.066406 -3.601562 L 1.019531 -3.601562 C 0.972656 -3.972656 0.929688 -4.34375 0.898438 -4.714844 C 0.898438 -4.730469 0.898438 -4.730469 0.898438 -4.746094 L 0.898438 -4.902344 C 0.929688 -5.613281 0.914062 -6.433594 1.144531 -7.128906 Z M 1.144531 -7.128906 "/></g></g></g><g fill="#f9f9fb" fill-opacity="1"><g transform="translate(33.500572, 19.175707)"><g><path d="M 0.355469 -8.164062 C 0.324219 -8.132812 0.324219 -8.089844 0.355469 -8.074219 C 0.695312 -8.226562 1.035156 -8.367188 1.390625 -8.476562 C 2.414062 -8.832031 3.464844 -9.0625 4.515625 -9.292969 C 5.117188 -9.433594 5.738281 -9.589844 6.339844 -9.742188 C 6.203125 -9.742188 6.0625 -9.742188 5.921875 -9.726562 C 5.257812 -9.679688 4.625 -9.558594 3.988281 -9.433594 L 3.632812 -9.339844 C 2.519531 -9.046875 1.375 -8.707031 0.355469 -8.164062 Z M 9.03125 -1.871094 C 9.21875 -2.011719 9.339844 -2.226562 9.324219 -2.503906 C 9.261719 -3.386719 8.96875 -4.746094 7.777344 -4.5 C 7.609375 -4.453125 7.453125 -4.375 7.285156 -4.332031 L 6.679688 -4.144531 C 6.308594 -4.019531 5.9375 -3.882812 5.566406 -3.742188 C 5.335938 -3.664062 5.101562 -3.574219 4.871094 -3.480469 L 3.558594 -2.96875 C 3.214844 -2.828125 2.875 -2.691406 2.535156 -2.535156 L 2.488281 -2.503906 C 2.488281 -2.535156 2.488281 -2.550781 2.488281 -2.566406 L 2.398438 -3.574219 C 2.828125 -3.789062 3.246094 -4.003906 3.695312 -4.191406 C 4.421875 -4.5 5.148438 -4.730469 5.890625 -4.933594 C 6.261719 -5.027344 6.648438 -5.101562 7.019531 -5.164062 C 7.375 -5.242188 7.71875 -5.226562 8.042969 -5.382812 C 8.320312 -5.519531 8.503906 -5.859375 8.445312 -6.15625 C 8.414062 -6.308594 8.320312 -6.464844 8.179688 -6.542969 C 8.164062 -6.542969 8.164062 -6.542969 8.148438 -6.558594 C 8.132812 -6.617188 8.105469 -6.679688 8.074219 -6.742188 C 8.058594 -6.773438 8.042969 -6.820312 8.011719 -6.867188 C 7.792969 -7.238281 7.421875 -7.253906 7.035156 -7.238281 C 6.851562 -7.222656 6.679688 -7.207031 6.496094 -7.175781 L 6.292969 -7.128906 C 5.800781 -6.988281 5.289062 -6.851562 4.792969 -6.726562 C 3.914062 -6.402344 3.0625 -6.03125 2.195312 -5.660156 C 2.195312 -5.738281 2.101562 -6.292969 2.085938 -6.449219 L 2.117188 -6.480469 C 2.597656 -6.679688 3.09375 -6.867188 3.585938 -7.035156 C 3.757812 -7.113281 5.289062 -7.578125 6.078125 -7.792969 C 6.109375 -7.792969 6.140625 -7.808594 6.171875 -7.824219 C 6.527344 -7.917969 6.882812 -8.027344 7.222656 -8.132812 L 7.996094 -8.367188 C 8.058594 -8.675781 8.011719 -9 7.902344 -9.324219 C 7.824219 -9.386719 7.730469 -9.464844 7.65625 -9.527344 L 7.40625 -9.617188 C 7.316406 -9.648438 7.207031 -9.664062 7.097656 -9.679688 C 6.292969 -9.464844 5.488281 -9.246094 4.671875 -9.0625 C 3.617188 -8.847656 2.566406 -8.613281 1.546875 -8.257812 C 1.222656 -8.148438 0.882812 -8.027344 0.558594 -7.886719 C 0.542969 -7.839844 0.511719 -7.792969 0.496094 -7.761719 C 0.277344 -7.578125 0.140625 -7.347656 0.109375 -7.035156 C 0.078125 -6.773438 0.171875 -6.480469 0.355469 -6.277344 L 0.542969 -4.515625 L 0.726562 -2.660156 C 0.773438 -2.117188 0.804688 -1.5625 0.898438 -1.035156 C 0.757812 -0.632812 1.019531 -0.171875 1.40625 -0.015625 C 1.390625 0.0625 1.390625 0.125 1.421875 0.199219 C 1.546875 0.464844 1.824219 0.480469 2.074219 0.433594 C 2.132812 0.433594 2.226562 0.417969 2.226562 0.417969 C 2.210938 0.433594 3.09375 0.171875 3.277344 0.046875 L 3.292969 0.03125 C 3.464844 -0.046875 3.632812 -0.109375 3.804688 -0.1875 C 3.835938 -0.199219 3.882812 -0.214844 3.914062 -0.230469 L 3.929688 -0.230469 C 4.4375 -0.449219 4.964844 -0.632812 5.488281 -0.820312 C 6.589844 -1.207031 7.730469 -1.5 8.875 -1.714844 C 8.96875 -1.730469 9.015625 -1.792969 9.03125 -1.871094 Z M 5.289062 -5.148438 L 5.304688 -5.101562 C 5.210938 -5.074219 5.132812 -5.042969 5.042969 -4.996094 C 4.269531 -4.6875 3.464844 -4.390625 2.707031 -4.003906 C 2.828125 -4.113281 2.921875 -4.269531 2.953125 -4.4375 C 3.246094 -4.515625 3.542969 -4.609375 3.851562 -4.703125 C 4.332031 -4.855469 4.808594 -4.996094 5.289062 -5.148438 Z M 1.871094 0.199219 C 2.179688 0.125 2.472656 0 2.769531 -0.109375 C 3.0625 -0.199219 3.339844 -0.308594 3.617188 -0.417969 L 3.617188 -0.386719 C 3.386719 -0.261719 3.15625 -0.140625 2.90625 -0.015625 C 2.800781 0.046875 2.675781 0.109375 2.550781 0.171875 C 2.535156 0.1875 2.519531 0.1875 2.503906 0.1875 C 2.457031 0.199219 2.101562 0.230469 1.871094 0.199219 Z M 1.871094 0.199219 "/></g></g></g><g fill="#f9f9fb" fill-opacity="1"><g transform="translate(41.37158, 19.175707)"><g><path d="M 8.816406 -5.890625 C 8.863281 -6.230469 8.769531 -6.511719 8.519531 -6.695312 C 8.320312 -6.851562 8.105469 -7.019531 7.886719 -7.175781 C 7.855469 -7.300781 7.792969 -7.421875 7.671875 -7.515625 C 6.15625 -8.535156 4.625 -9.589844 2.921875 -10.128906 C 2.90625 -10.128906 2.890625 -10.144531 2.875 -10.144531 C 2.769531 -10.191406 2.660156 -10.222656 2.550781 -10.269531 C 2.519531 -10.300781 2.472656 -10.332031 2.414062 -10.332031 C 1.902344 -10.421875 0.972656 -10.625 0.679688 -10.050781 C 0.511719 -9.695312 0.679688 -9.261719 0.972656 -9.015625 C 0.882812 -8.875 0.773438 -8.769531 0.648438 -8.675781 C 0.773438 -8.148438 0.882812 -7.609375 0.988281 -7.082031 C 0.898438 -7.082031 0.804688 -7.082031 0.710938 -7.066406 C 0.246094 -7.066406 0.0625 -6.292969 0.496094 -6.015625 C 0.632812 -5.921875 0.804688 -5.832031 0.957031 -5.769531 L 0.601562 -5.722656 C 0.773438 -5.660156 0.941406 -5.597656 1.113281 -5.550781 C 1.175781 -5.535156 1.207031 -5.488281 1.207031 -5.445312 C 1.238281 -5.445312 1.269531 -5.445312 1.300781 -5.445312 L 1.390625 -4.902344 C 1.515625 -4.175781 1.640625 -3.449219 1.761719 -2.722656 L 1.902344 -1.699219 C 1.933594 -1.359375 1.902344 -0.988281 1.980469 -0.664062 C 1.980469 -0.496094 2.132812 -0.386719 2.257812 -0.417969 C 2.273438 -0.324219 2.304688 -0.246094 2.351562 -0.171875 C 2.535156 0.046875 2.84375 0.03125 3.046875 -0.140625 C 3.203125 -0.261719 3.308594 -0.417969 3.402344 -0.601562 C 3.402344 -0.679688 3.402344 -0.773438 3.386719 -0.867188 C 3.433594 -1.625 3.355469 -2.414062 3.308594 -3.171875 C 3.277344 -3.882812 3.214844 -4.59375 3.140625 -5.289062 C 3.542969 -5.273438 3.960938 -5.242188 4.359375 -5.226562 C 4.4375 -5.089844 4.53125 -4.933594 4.625 -4.792969 L 4.625 -4.777344 C 4.714844 -4.625 4.792969 -4.46875 4.871094 -4.300781 C 5.164062 -3.726562 5.582031 -2.707031 5.753906 -2.304688 C 6.0625 -1.59375 6.371094 -0.867188 6.648438 -0.140625 C 6.710938 -0.109375 6.804688 -0.140625 6.851562 -0.1875 C 6.851562 -0.171875 6.867188 -0.171875 6.882812 -0.171875 C 7.019531 -0.109375 7.160156 -0.109375 7.300781 -0.125 C 7.5625 -0.015625 7.917969 -0.09375 7.964844 -0.433594 C 8.089844 -1.4375 7.546875 -2.414062 7.128906 -3.292969 C 6.804688 -3.960938 6.433594 -4.59375 6.015625 -5.210938 C 6.742188 -5.148438 7.46875 -5.089844 8.195312 -5.042969 C 8.445312 -5.011719 8.738281 -5.273438 8.769531 -5.566406 Z M 2.535156 -8.257812 L 2.488281 -8.503906 C 3.820312 -8.195312 5.058594 -7.53125 6.246094 -6.710938 L 4.746094 -6.898438 C 4.390625 -7.191406 3.882812 -7.609375 3.417969 -7.316406 C 3.339844 -7.253906 3.292969 -7.160156 3.277344 -7.082031 C 3.203125 -7.097656 3.109375 -7.097656 3.03125 -7.113281 C 2.96875 -7.4375 2.890625 -7.761719 2.816406 -8.089844 C 2.800781 -8.226562 2.644531 -8.226562 2.566406 -8.148438 C 2.550781 -8.179688 2.550781 -8.226562 2.535156 -8.257812 Z M 3.632812 -1.300781 C 3.695312 -1.671875 3.820312 -1.824219 3.773438 -2.382812 C 3.695312 -3.308594 3.617188 -4.238281 3.464844 -5.132812 L 3.339844 -5.132812 C 3.527344 -3.867188 3.574219 -2.582031 3.632812 -1.300781 Z M 3.632812 -1.300781 "/></g></g></g><g fill="#f9f9fb" fill-opacity="1"><g transform="translate(49.087947, 19.175707)"><g><path d="M 0.355469 -8.164062 C 0.324219 -8.132812 0.324219 -8.089844 0.355469 -8.074219 C 0.695312 -8.226562 1.035156 -8.367188 1.390625 -8.476562 C 2.414062 -8.832031 3.464844 -9.0625 4.515625 -9.292969 C 5.117188 -9.433594 5.738281 -9.589844 6.339844 -9.742188 C 6.203125 -9.742188 6.0625 -9.742188 5.921875 -9.726562 C 5.257812 -9.679688 4.625 -9.558594 3.988281 -9.433594 L 3.632812 -9.339844 C 2.519531 -9.046875 1.375 -8.707031 0.355469 -8.164062 Z M 9.03125 -1.871094 C 9.21875 -2.011719 9.339844 -2.226562 9.324219 -2.503906 C 9.261719 -3.386719 8.96875 -4.746094 7.777344 -4.5 C 7.609375 -4.453125 7.453125 -4.375 7.285156 -4.332031 L 6.679688 -4.144531 C 6.308594 -4.019531 5.9375 -3.882812 5.566406 -3.742188 C 5.335938 -3.664062 5.101562 -3.574219 4.871094 -3.480469 L 3.558594 -2.96875 C 3.214844 -2.828125 2.875 -2.691406 2.535156 -2.535156 L 2.488281 -2.503906 C 2.488281 -2.535156 2.488281 -2.550781 2.488281 -2.566406 L 2.398438 -3.574219 C 2.828125 -3.789062 3.246094 -4.003906 3.695312 -4.191406 C 4.421875 -4.5 5.148438 -4.730469 5.890625 -4.933594 C 6.261719 -5.027344 6.648438 -5.101562 7.019531 -5.164062 C 7.375 -5.242188 7.71875 -5.226562 8.042969 -5.382812 C 8.320312 -5.519531 8.503906 -5.859375 8.445312 -6.15625 C 8.414062 -6.308594 8.320312 -6.464844 8.179688 -6.542969 C 8.164062 -6.542969 8.164062 -6.542969 8.148438 -6.558594 C 8.132812 -6.617188 8.105469 -6.679688 8.074219 -6.742188 C 8.058594 -6.773438 8.042969 -6.820312 8.011719 -6.867188 C 7.792969 -7.238281 7.421875 -7.253906 7.035156 -7.238281 C 6.851562 -7.222656 6.679688 -7.207031 6.496094 -7.175781 L 6.292969 -7.128906 C 5.800781 -6.988281 5.289062 -6.851562 4.792969 -6.726562 C 3.914062 -6.402344 3.0625 -6.03125 2.195312 -5.660156 C 2.195312 -5.738281 2.101562 -6.292969 2.085938 -6.449219 L 2.117188 -6.480469 C 2.597656 -6.679688 3.09375 -6.867188 3.585938 -7.035156 C 3.757812 -7.113281 5.289062 -7.578125 6.078125 -7.792969 C 6.109375 -7.792969 6.140625 -7.808594 6.171875 -7.824219 C 6.527344 -7.917969 6.882812 -8.027344 7.222656 -8.132812 L 7.996094 -8.367188 C 8.058594 -8.675781 8.011719 -9 7.902344 -9.324219 C 7.824219 -9.386719 7.730469 -9.464844 7.65625 -9.527344 L 7.40625 -9.617188 C 7.316406 -9.648438 7.207031 -9.664062 7.097656 -9.679688 C 6.292969 -9.464844 5.488281 -9.246094 4.671875 -9.0625 C 3.617188 -8.847656 2.566406 -8.613281 1.546875 -8.257812 C 1.222656 -8.148438 0.882812 -8.027344 0.558594 -7.886719 C 0.542969 -7.839844 0.511719 -7.792969 0.496094 -7.761719 C 0.277344 -7.578125 0.140625 -7.347656 0.109375 -7.035156 C 0.078125 -6.773438 0.171875 -6.480469 0.355469 -6.277344 L 0.542969 -4.515625 L 0.726562 -2.660156 C 0.773438 -2.117188 0.804688 -1.5625 0.898438 -1.035156 C 0.757812 -0.632812 1.019531 -0.171875 1.40625 -0.015625 C 1.390625 0.0625 1.390625 0.125 1.421875 0.199219 C 1.546875 0.464844 1.824219 0.480469 2.074219 0.433594 C 2.132812 0.433594 2.226562 0.417969 2.226562 0.417969 C 2.210938 0.433594 3.09375 0.171875 3.277344 0.046875 L 3.292969 0.03125 C 3.464844 -0.046875 3.632812 -0.109375 3.804688 -0.1875 C 3.835938 -0.199219 3.882812 -0.214844 3.914062 -0.230469 L 3.929688 -0.230469 C 4.4375 -0.449219 4.964844 -0.632812 5.488281 -0.820312 C 6.589844 -1.207031 7.730469 -1.5 8.875 -1.714844 C 8.96875 -1.730469 9.015625 -1.792969 9.03125 -1.871094 Z M 5.289062 -5.148438 L 5.304688 -5.101562 C 5.210938 -5.074219 5.132812 -5.042969 5.042969 -4.996094 C 4.269531 -4.6875 3.464844 -4.390625 2.707031 -4.003906 C 2.828125 -4.113281 2.921875 -4.269531 2.953125 -4.4375 C 3.246094 -4.515625 3.542969 -4.609375 3.851562 -4.703125 C 4.332031 -4.855469 4.808594 -4.996094 5.289062 -5.148438 Z M 1.871094 0.199219 C 2.179688 0.125 2.472656 0 2.769531 -0.109375 C 3.0625 -0.199219 3.339844 -0.308594 3.617188 -0.417969 L 3.617188 -0.386719 C 3.386719 -0.261719 3.15625 -0.140625 2.90625 -0.015625 C 2.800781 0.046875 2.675781 0.109375 2.550781 0.171875 C 2.535156 0.1875 2.519531 0.1875 2.503906 0.1875 C 2.457031 0.199219 2.101562 0.230469 1.871094 0.199219 Z M 1.871094 0.199219 "/></g></g></g></svg>